# xmcd
#
# Track frame offsets: 
#        150
#        30149
#        44078
#        60222
#        76095
#        89961
#        104251
#        118027
#        130679
#        141733
#
# Disc length: 2057 seconds
#
# Revision: 1
# Processed by: cddbd v1.5.2PL0 Copyright (c) Steve Scherf et al.
# Submitted via: ExactAudioCopy v0.95b4
#
DISCID=8408070a
DTITLE=Various Artist - Best Of Country - Collectors Edition - Disc 1
DYEAR=2007
DGENRE=Country
TTITLE0=Asleep At The Wheel - Hot Rod Lincoln (Live)
TTITLE1=Barbara Fairchild - The Teddy Bear Song
TTITLE2=T.G. Sheppard - I Loved 'Em Every One
TTITLE3=B.J. Thomas - Another Somebody Done Somebody Wrong Song
TTITLE4=Moe Brandy - I Cheated Me Right Out Of You
TTITLE5=T. Graham Brown - Hell And High Water
TTITLE6=Lacy J. Dalton - 16th Avenue
TTITLE7=Exile - Gimme One More Chance
TTITLE8=Janie Frickie - Don't Worry About Me Baby
TTITLE9=Freddy Fender - Wasted Days And Wasted Nights
EXTD=
EXTT0=
EXTT1=
EXTT2=
EXTT3=
EXTT4=
EXTT5=
EXTT6=
EXTT7=
EXTT8=
EXTT9=
PLAYORDER=
